{"title":"Everest (2015) 720p Blurred Subtitles-BDM","uid":12625671,"size":1719820250,"categoryP":"video","categoryS":"hd___movies","magnet":"?xt=urn:btih:35e32598b4851d64b3919bb5cf14f3430f0e4f4c&amp;dn=Everest+%282015%29+720p+Blurred+Subtitles-BDM&amp;tr=udp%3A%2F%2Ftracker.leechers-paradise.org%3A6969&amp;tr=udp%3A%2F%2Fzer0day.ch%3A1337&amp;tr=udp%3A%2F%2Fopen.demonii.com%3A1337&amp;tr=udp%3A%2F%2Ftracker.coppersurfer.tk%3A6969&amp;tr=udp%3A%2F%2Fexodus.desync.com%3A6969","seeders":0,"leechers":1,"uploader":"BigDogMoya","files":3,"time":1445770448,"description":"I would like to thank the original up-loaders for their time and effort uploading these movies! It is much appreciated.\r\nSource Torrent: https://kat.cr/everest-2015-hc-720p-hdrip-999mb-shaanig-t11456414.html\r\n\r\nIMDB Link:\r\n  \nhttp://www.imdb.com/title/tt2719848/\r\n\r\nMedia Info:\r\nVideo\r\nID : 1\r\nFormat : AVC\r\nFormat/Info : Advanced Video Codec\r\nFormat profile :   \r\nFormat settings, CABAC : Yes\r\nFormat settings, ReFrames : 4 frames\r\nCodec ID : avc1\r\nCodec ID/Info : Advanced Video Coding\r\nDuration : 2h 0mn\r\nBit rate : 1 774 Kbps\r\nMaximum bit rate : 8 656 Kbps\r\nWidth : 1 280 pixels\r\nHeight : 536 pixels\r\nDisplay aspect ratio : 2.40:1\r\nFrame rate mode : Constant\r\nFrame rate : 29.970 fps\r\nColor space : YUV\r\nChroma subsampling : 4:2:0\r\nBit depth : 8 bits\r\nScan type : Progressive\r\nBits/(Pixel*Frame) : 0.086\r\nStream size : 1.50 GiB (94%)\r\n\r\nAudio\r\nID : 2\r\nFormat : AAC\r\nFormat/Info : Advanced Audio Codec\r\nFormat profile : LC\r\nCodec ID : 40\r\nDuration : 2h 0mn\r\nBit rate mode : Variable\r\nBit rate : 104 Kbps\r\nChannel(s) : 2 channels\r\nChannel positions : Front: L R\r\nSampling rate : 48.0 KHz\r\nCompression mode : Lossy\r\nStream size : 89.5 MiB (6%)\r\n\r\n\r\nScreen Shots:\r\n  \nhttp://i.imgur.com/Su7bTms.png\r\n  \nhttp://i.imgur.com/ElsPd8o.png\r\n  \nhttp://i.imgur.com/AvP0yte.png\r\n  \nhttp://i.imgur.com/WiQKGK1.png\r\n  \nhttp://i.imgur.com/U5QMA5k.png\r\n\r\n\r\nAlso included a sample, enjoy.\t\t\r\n\r\n\r\nTutorial on how I blur subtitles here.\r\n  \nhttps://pirates-forum.org/Thread-How-To-Blur-Subtitles-Like-a-Pro-The-Easy-Way[/center]","torrent":{"xt":"urn:btih:35e32598b4851d64b3919bb5cf14f3430f0e4f4c","amp;dn":"Everest+%282015%29+720p+Blurred+Subtitles-BDM","amp;tr":["udp%3A%2F%2Ftracker.leechers-paradise.org%3A6969","udp%3A%2F%2Fzer0day.ch%3A1337","udp%3A%2F%2Fopen.demonii.com%3A1337","udp%3A%2F%2Ftracker.coppersurfer.tk%3A6969","udp%3A%2F%2Fexodus.desync.com%3A6969"],"infoHash":"35e32598b4851d64b3919bb5cf14f3430f0e4f4c","infoHashBuffer":{"type":"Buffer","data":[53,227,37,152,180,133,29,100,179,145,155,181,207,20,243,67,15,14,79,76]},"announce":[],"urlList":[]}}